<svg width="1000" height="260" viewBox="0 0 1000 260" fill="none" xmlns="http://www.w3.org/2000/svg">
<path d="M10.0213 1.8047C12.0766 1.98464 12.9516 2.42301 14.644 3.56333C15.2027 3.92742 15.7628 4.2895 16.3239 4.64999C16.6328 4.8494 16.9416 5.04882 17.2599 5.25428C19.2518 6.49943 21.3084 7.6344 23.3563 8.78545C26.4902 10.5552 29.6156 12.3363 32.7174 14.1612C39.7589 18.2992 46.84 22.3759 53.9729 26.3563C54.416 26.6038 54.416 26.6038 54.868 26.8562C56.3121 27.6614 57.7576 28.464 59.205 29.2633C60.7269 30.1042 62.2468 30.9487 63.7666 31.7935C64.2452 32.0565 64.7239 32.3195 65.217 32.5905C73.1724 37.0225 73.1724 37.0225 74.6415 40.794C74.7171 42.1418 74.7223 43.3692 74.6512 44.7067C74.6357 45.4631 74.6219 46.2196 74.6096 46.976C74.5843 48.1565 74.5489 49.3329 74.484 50.512C74.3493 53.1463 74.3601 55.4565 75.1358 57.9962C77.215 59.9639 79.4102 60.8829 82.0562 61.9282C82.9127 62.3444 83.7656 62.7683 84.6128 63.203C85.0037 63.3931 85.3946 63.5831 85.7974 63.7789C88.1087 64.9455 90.3286 66.2715 92.5604 67.5803C93.3364 68.0329 93.3364 68.0329 94.128 68.4946C95.7075 69.4166 97.2855 70.341 98.863 71.2665C99.5443 71.6663 99.5443 71.6663 100.239 72.0741C101.983 73.0978 103.727 74.1224 105.47 75.1479C111.659 78.7887 117.862 82.4073 124.073 86.0113C124.359 86.1772 124.645 86.3431 124.939 86.514C130.748 89.8826 136.569 93.2176 142.486 96.3941C147.514 99.0936 152.433 101.955 157.332 104.877C158.687 105.678 160.051 106.464 161.417 107.247C162.295 107.756 163.173 108.265 164.051 108.774C164.447 108.997 164.844 109.221 165.252 109.451C170.077 112.272 173.257 115.692 175.003 120.977C175.826 124.322 175.624 127.801 175.618 131.223C175.62 132.019 175.622 132.816 175.625 133.612C175.632 135.767 175.632 137.922 175.631 140.077C175.63 141.879 175.633 143.682 175.635 145.485C175.641 149.74 175.641 153.995 175.638 158.25C175.635 162.631 175.641 167.012 175.652 171.393C175.66 175.162 175.663 178.931 175.662 182.7C175.661 184.948 175.662 187.196 175.669 189.444C175.675 191.558 175.674 193.673 175.668 195.788C175.666 196.561 175.668 197.334 175.672 198.107C175.696 203.097 175.591 207.949 172.64 212.202C172.418 212.534 172.196 212.866 171.968 213.208C169.217 216.395 165.807 218.382 162.166 220.435C161.11 221.038 160.054 221.642 158.998 222.245C158.457 222.553 157.915 222.861 157.358 223.178C155.722 224.114 154.094 225.06 152.467 226.012C151.944 226.318 151.42 226.624 150.881 226.939C149.886 227.522 148.891 228.105 147.897 228.688C145.354 230.17 142.791 231.539 140.146 232.83C137.862 233.986 135.67 235.296 133.465 236.593C132.413 237.207 131.361 237.822 130.308 238.436C129.769 238.751 129.229 239.066 128.674 239.39C126.026 240.929 123.365 242.446 120.706 243.965C117.306 245.908 113.917 247.864 110.547 249.857C110.095 250.124 110.095 250.124 109.634 250.397C108.181 251.257 106.73 252.118 105.28 252.983C99.0613 256.673 93.8929 259.117 86.5051 258.034C83.6476 257.189 81.1253 255.636 78.596 254.102C78.0217 253.767 77.447 253.432 76.8717 253.098C75.6712 252.394 74.4798 251.678 73.2918 250.953C70.7459 249.407 68.1676 247.915 65.5894 246.423C64.8392 245.988 64.8392 245.988 64.0738 245.545C58.2143 242.154 52.3419 238.787 46.4655 235.425C46.0866 235.208 45.7077 234.992 45.3174 234.768C44.3926 234.239 43.4674 233.711 42.5419 233.183C41.847 232.787 41.847 232.787 41.1381 232.382C39.7644 231.616 38.3834 230.866 36.9982 230.121C33.5574 228.258 30.1818 226.29 26.8039 224.318C24.4599 222.949 22.1156 221.585 19.7455 220.262C14.2588 217.183 9.50209 214.147 7.41461 207.902C7.06348 205.11 7.08654 202.346 7.11074 199.536C7.10895 198.688 7.10608 197.839 7.10222 196.99C7.0948 194.666 7.10273 192.342 7.11325 190.018C7.12191 187.509 7.11627 185 7.11243 182.49C7.10716 177.579 7.11503 172.668 7.12732 167.757C7.14113 162.04 7.14179 156.323 7.14188 150.607C7.14247 140.411 7.1548 130.215 7.17385 120.02C7.19233 110.119 7.20281 100.219 7.20426 90.3184C7.20435 89.708 7.20444 89.0977 7.20453 88.4689C7.20462 87.8596 7.20471 87.2503 7.2048 86.6226C7.20498 85.3959 7.20517 84.1693 7.20535 82.9426C7.20549 82.0353 7.20549 82.0353 7.20563 81.1096C7.20739 71.6812 7.21651 62.2528 7.22636 52.8243C7.22983 49.4035 7.2322 45.9827 7.23375 42.5619C7.23624 37.1394 7.24187 31.7169 7.25417 26.2944C7.25973 23.8157 7.26373 21.337 7.26349 18.8583C7.26334 16.5926 7.26772 14.327 7.27584 12.0613C7.27798 11.2386 7.27844 10.4158 7.27711 9.59304C7.27556 8.48096 7.28 7.36907 7.28606 6.25701C7.28702 5.63745 7.28798 5.01789 7.28898 4.37955C7.47273 2.28706 7.94204 2.01194 10.0213 1.8047ZM74.6415 135.652C74.6415 154.304 74.6415 172.957 74.6415 192.174C76.4335 191.461 77.8957 190.79 79.5325 189.832C79.9984 189.56 80.4644 189.288 80.9444 189.008C81.4438 188.715 81.9433 188.421 82.4579 188.119C83.5353 187.49 84.6127 186.861 85.6902 186.232C86.5134 185.75 86.5134 185.75 87.3532 185.259C89.8161 183.819 92.2853 182.391 94.754 180.962C104.376 175.383 113.982 169.779 123.579 164.159C122.085 162.995 120.539 162.037 118.892 161.1C118.362 160.798 117.832 160.496 117.286 160.184C116.722 159.864 116.158 159.543 115.577 159.213C114.399 158.541 113.221 157.868 112.043 157.195C111.754 157.03 111.464 156.865 111.166 156.695C108.983 155.448 106.808 154.189 104.64 152.916C102.105 151.428 99.5687 149.943 97.0286 148.464C96.7303 148.29 96.4321 148.116 96.1248 147.937C94.884 147.215 93.6433 146.492 92.4024 145.77C89.1597 143.882 85.9191 141.99 82.6876 140.083C81.9294 139.636 81.9294 139.636 81.1558 139.18C80.2092 138.621 79.2631 138.061 78.3176 137.499C77.9023 137.254 77.4869 137.009 77.059 136.756C76.6972 136.542 76.3355 136.327 75.9627 136.106C75.2211 135.613 75.2211 135.613 74.6415 135.652Z" fill="#007C52"/>
<path d="M73.6525 39.3195C74.8809 41.1515 74.697 42.4588 74.6025 44.5627C74.5885 45.3239 74.5763 46.0852 74.5658 46.8464C74.5467 48.0433 74.5179 49.2355 74.4565 50.431C74.244 54.2856 74.244 54.2856 75.1355 57.9962C77.2142 59.9699 79.4052 60.8851 82.0559 61.9282C82.9125 62.3443 83.7653 62.7681 84.6124 63.203C85.1988 63.4881 85.1988 63.4881 85.797 63.7789C88.1083 64.9455 90.3283 66.2715 92.5601 67.5803C93.0774 67.882 93.5947 68.1837 94.1276 68.4946C95.7071 69.4166 97.2852 70.341 98.8626 71.2665C99.3168 71.533 99.7711 71.7995 100.239 72.0741C101.983 73.0978 103.726 74.1224 105.469 75.1479C111.659 78.7887 117.861 82.4073 124.073 86.0113C124.359 86.1772 124.644 86.3431 124.939 86.514C130.748 89.8826 136.568 93.2176 142.486 96.3941C147.514 99.0936 152.432 101.955 157.332 104.877C158.687 105.678 160.051 106.464 161.417 107.247C162.295 107.756 163.173 108.265 164.05 108.774C164.447 108.997 164.843 109.221 165.252 109.451C170.077 112.272 173.257 115.692 175.003 120.977C175.826 124.322 175.623 127.801 175.617 131.223C175.619 132.019 175.622 132.816 175.625 133.612C175.632 135.767 175.632 137.922 175.631 140.077C175.63 141.879 175.632 143.682 175.635 145.485C175.64 149.74 175.641 153.995 175.638 158.25C175.635 162.631 175.641 167.012 175.651 171.393C175.66 175.162 175.663 178.931 175.661 182.7C175.66 184.948 175.662 187.196 175.668 189.444C175.675 191.558 175.674 193.673 175.667 195.788C175.666 196.561 175.667 197.334 175.672 198.107C175.696 203.097 175.59 207.949 172.639 212.202C172.417 212.534 172.196 212.866 171.967 213.208C169.217 216.395 165.806 218.382 162.166 220.435C161.11 221.038 160.053 221.642 158.997 222.245C158.456 222.553 157.915 222.861 157.358 223.178C155.722 224.114 154.093 225.06 152.467 226.012C151.943 226.318 151.42 226.624 150.88 226.939C149.885 227.522 148.891 228.105 147.896 228.688C145.354 230.17 142.79 231.539 140.145 232.83C137.862 233.986 135.669 235.296 133.465 236.593C132.413 237.207 131.36 237.822 130.308 238.436C129.768 238.751 129.229 239.065 128.673 239.39C126.026 240.929 123.365 242.446 120.705 243.965C117.306 245.908 113.916 247.864 110.547 249.857C110.245 250.035 109.944 250.214 109.633 250.397C108.181 251.257 106.729 252.118 105.279 252.983C99.0712 256.667 93.8837 259.135 86.5047 258.034C83.652 257.174 81.1154 255.655 78.5957 254.102C78.1654 253.843 78.1654 253.843 77.7265 253.578C76.1786 252.642 74.6578 251.673 73.1582 250.662C73.4845 250.499 73.8107 250.337 74.1468 250.17C75.1084 250.552 75.1084 250.552 76.1859 251.122C76.544 251.309 76.9021 251.496 77.2711 251.689C77.5451 251.836 77.8191 251.984 78.1014 252.136C77.6732 251.573 77.6732 251.573 77.2363 251C74.0163 246.072 73.8611 241.043 73.8903 235.368C73.8874 234.52 73.8836 233.672 73.8791 232.824C73.8691 230.505 73.8713 228.186 73.8756 225.867C73.878 223.362 73.869 220.858 73.8615 218.353C73.85 214.016 73.8457 209.68 73.8462 205.344C73.8471 199.074 73.837 192.805 73.8243 186.535C73.804 176.363 73.7925 166.19 73.7865 156.018C73.7806 146.138 73.7706 136.258 73.7551 126.378C73.7537 125.464 73.7537 125.464 73.7522 124.531C73.7474 121.475 73.7425 118.418 73.7375 115.361C73.6966 90.0138 73.6699 64.6667 73.6525 39.3195ZM74.6411 135.652C74.6411 154.304 74.6411 172.957 74.6411 192.174C76.4332 191.461 77.8953 190.79 79.5322 189.832C79.9981 189.56 80.464 189.288 80.944 189.008C81.4435 188.715 81.9429 188.421 82.4575 188.119C83.5349 187.49 84.6124 186.861 85.6899 186.232C86.5131 185.75 86.5131 185.75 87.3529 185.259C89.8157 183.819 92.2849 182.391 94.7536 180.962C104.375 175.383 113.982 169.779 123.578 164.159C122.084 162.995 120.539 162.037 118.892 161.1C118.362 160.798 117.832 160.495 117.286 160.184C116.722 159.864 116.158 159.543 115.577 159.213C114.398 158.541 113.221 157.868 112.043 157.195C111.754 157.03 111.464 156.865 111.166 156.695C108.983 155.448 106.808 154.189 104.64 152.916C102.105 151.428 99.5683 149.943 97.0282 148.464C96.73 148.29 96.4317 148.116 96.1244 147.937C94.8837 147.215 93.6429 146.492 92.4021 145.77C89.1593 143.882 85.9188 141.99 82.6873 140.083C81.929 139.636 81.929 139.636 81.1555 139.18C80.2088 138.621 79.2627 138.061 78.3173 137.499C77.9019 137.254 77.4866 137.009 77.0587 136.756C76.6969 136.542 76.3351 136.327 75.9624 136.106C75.2208 135.613 75.2208 135.613 74.6411 135.652Z" fill="#7CAD3B"/>
<path d="M125.448 164.357C127.232 165.237 128.92 166.216 130.615 167.256C132.017 168.112 133.434 168.934 134.86 169.75C135.363 170.037 135.865 170.325 136.383 170.621C136.909 170.922 137.435 171.222 137.976 171.531C139.119 172.186 140.263 172.84 141.406 173.495C141.693 173.66 141.981 173.825 142.277 173.995C145.619 175.911 148.952 177.841 152.28 179.78C154.829 181.265 157.385 182.735 159.956 184.183C160.491 184.487 161.027 184.791 161.579 185.105C162.598 185.683 163.619 186.257 164.643 186.826C168.392 188.963 171.605 191.237 173.443 195.246C173.636 195.654 173.828 196.062 174.026 196.482C175.068 198.93 175.067 200.865 174.988 203.478C174.986 203.914 174.983 204.349 174.98 204.797C174.802 209.272 173.106 212.415 169.821 215.441C167.279 217.594 164.443 219.197 161.549 220.834C161.022 221.139 160.494 221.443 159.951 221.757C157.746 223.019 155.619 224.201 153.238 225.104C149.926 226.628 146.841 228.415 143.777 230.384C142.017 231.153 141.249 230.952 139.397 230.51C138.085 229.895 138.085 229.895 136.748 229.109C136.244 228.816 135.74 228.523 135.221 228.221C134.683 227.902 134.144 227.583 133.589 227.254C133.017 226.92 132.444 226.586 131.87 226.252C130.681 225.559 129.494 224.865 128.307 224.168C125.609 222.588 122.894 221.036 120.181 219.482C119.392 219.03 119.392 219.03 118.587 218.568C114.927 216.468 111.26 214.382 107.59 212.301C101.536 208.869 95.5059 205.397 89.4918 201.895C86.768 200.311 84.0415 198.731 81.3153 197.15C80.3112 196.568 79.3071 195.986 78.3031 195.403C77.8816 195.159 77.4601 194.914 77.0258 194.662C76.5799 194.404 76.5799 194.404 76.125 194.14C76.4905 191.988 76.8609 191.115 78.5966 189.716C79.833 188.983 81.0642 188.296 82.3348 187.628C85.2188 186.078 88.0654 184.479 90.8753 182.801C91.3131 182.54 91.3131 182.54 91.7597 182.274C92.9318 181.574 94.1034 180.874 95.2708 180.167C98.3091 178.326 101.247 176.703 104.58 175.466C106.872 174.524 108.952 173.208 111.067 171.931C111.774 171.512 111.774 171.512 112.496 171.085C114.655 169.803 116.797 168.504 118.908 167.146C119.242 166.935 119.576 166.724 119.92 166.507C120.529 166.121 121.132 165.726 121.729 165.321C123.079 164.468 123.847 164.126 125.448 164.357Z" fill="#017C52"/>
<path d="M76.1246 191.191C76.4509 191.353 76.7771 191.515 77.1133 191.682C76.787 192.331 76.4608 192.98 76.1246 193.648C75.7984 193.648 75.4721 193.648 75.136 193.648C74.9729 210.192 74.8098 226.736 74.6417 243.781C74.4786 243.781 74.3154 243.781 74.1474 243.781C74.1016 237.142 74.0665 230.502 74.0449 223.863C74.0346 220.781 74.0206 217.698 73.9982 214.615C73.9768 211.642 73.9649 208.669 73.9598 205.696C73.9561 204.56 73.949 203.424 73.9383 202.288C73.924 200.7 73.922 199.113 73.9229 197.525C73.9158 197.052 73.9087 196.58 73.9014 196.093C73.9214 192.9 73.9214 192.9 75.15 191.624C75.4717 191.481 75.7933 191.338 76.1246 191.191Z" fill="#469847"/>
<path d="M71.1816 248.204C72.0072 248.528 72.8306 248.856 73.6532 249.187C74.5402 249.537 74.5402 249.537 75.4451 249.894C76.8566 250.543 77.6391 250.96 78.5964 252.136C76.7778 252.136 75.9175 251.592 74.3329 250.723C73.8474 250.461 73.3618 250.198 72.8615 249.928C71.676 249.187 71.676 249.187 71.1816 248.204Z" fill="#097748"/>
<path d="M126.051 240.832C124.256 241.805 122.462 242.778 120.613 243.781C121.108 241.815 121.108 241.815 121.986 241.283C122.339 241.164 122.691 241.046 123.054 240.924C123.405 240.799 123.756 240.674 124.118 240.546C125.062 240.34 125.062 240.34 126.051 240.832Z" fill="#9EC26D"/>
<path d="M88.977 184.31C88.977 184.797 88.977 185.283 88.977 185.785C87.8132 186.487 87.2566 186.81 85.8875 186.583C85.602 186.482 85.3166 186.38 85.0225 186.276C87.8648 184.31 87.8648 184.31 88.977 184.31Z" fill="#3A9675"/>
<path d="M613.942 120.907C616.287 121.962 617.301 123.536 618.514 125.699C618.906 126.375 619.299 127.05 619.692 127.725C619.888 128.067 620.085 128.409 620.287 128.761C621.134 130.223 622.019 131.661 622.901 133.103C624.893 136.395 626.842 139.712 628.781 143.035C629.124 143.621 629.467 144.206 629.811 144.791C630.296 145.617 630.778 146.445 631.26 147.273C631.542 147.757 631.825 148.24 632.115 148.738C632.726 149.906 632.726 149.906 632.726 150.888C632.97 151.132 633.215 151.375 633.467 151.626C633.712 151.869 633.956 152.112 634.208 152.363C634.208 152.687 634.208 153.012 634.208 153.346C634.423 153.539 634.637 153.731 634.857 153.93C635.808 154.945 636.198 155.977 636.716 157.25C637.227 158.377 637.83 159.399 638.478 160.453C638.875 161.104 638.875 161.104 639.279 161.767C639.563 162.232 639.848 162.697 640.14 163.176C644.361 170.171 648.502 177.196 652.484 184.328C655.384 189.508 658.345 194.691 661.619 199.65C661.846 199.996 662.073 200.342 662.307 200.698C662.513 201.004 662.718 201.31 662.93 201.625C663.373 202.495 663.373 202.495 663.342 204.185C662.879 205.444 662.879 205.444 661.89 205.936C661.106 205.987 660.319 206.009 659.533 206.015C659.043 206.02 658.553 206.024 658.048 206.029C657.252 206.032 657.252 206.032 656.439 206.036C655.895 206.038 655.352 206.041 654.792 206.044C653.64 206.049 652.489 206.052 651.337 206.054C649.572 206.059 647.807 206.074 646.042 206.089C644.925 206.093 643.808 206.095 642.691 206.097C642.161 206.103 641.631 206.109 641.085 206.115C640.594 206.114 640.102 206.112 639.596 206.111C638.947 206.114 638.947 206.114 638.284 206.116C636.93 205.896 636.526 205.524 635.691 204.461C634.944 203.075 634.283 201.658 633.612 200.234C632.691 198.499 631.639 196.926 630.533 195.305C629.272 193.405 628.161 191.424 627.041 189.44C624.815 185.531 622.558 181.643 620.275 177.767C617.621 173.257 615.012 168.726 612.459 164.159C612.132 164.159 611.806 164.159 611.47 164.159C610.388 166.038 609.307 167.916 608.227 169.796C607.86 170.433 607.493 171.07 607.126 171.707C606.595 172.631 606.064 173.555 605.532 174.478C605.274 174.927 605.274 174.927 605.01 175.384C603.833 177.432 602.69 179.495 601.582 181.58C601.089 182.344 601.089 182.344 600.101 182.836C599.978 183.308 599.856 183.78 599.73 184.266C599.034 186.9 597.558 189.097 596.146 191.406C595.861 191.879 595.575 192.352 595.281 192.839C594.422 194.259 593.555 195.675 592.686 197.089C592.432 197.502 592.178 197.916 591.917 198.342C591.239 199.442 590.558 200.539 589.875 201.635C589.672 201.96 589.47 202.285 589.261 202.619C588.494 203.835 587.779 204.917 586.754 205.936C585.248 206.041 583.787 206.085 582.28 206.086C581.584 206.092 581.584 206.092 580.874 206.099C579.335 206.111 577.795 206.115 576.256 206.118C575.188 206.123 574.12 206.127 573.053 206.132C570.812 206.14 568.571 206.143 566.33 206.145C563.457 206.148 560.585 206.166 557.713 206.189C555.506 206.203 553.3 206.207 551.093 206.207C550.034 206.209 548.975 206.215 547.917 206.226C546.435 206.239 544.954 206.237 543.472 206.23C543.034 206.238 542.596 206.245 542.145 206.252C539.965 206.227 539.089 206.159 537.329 204.769C536.342 203.489 535.55 202.255 534.805 200.823C534.534 200.31 534.262 199.797 533.983 199.269C533.699 198.722 533.414 198.175 533.121 197.611C532.505 196.451 531.889 195.291 531.269 194.132C531.036 193.695 531.036 193.695 530.798 193.25C529.332 190.52 527.769 187.855 526.17 185.201C523.595 180.926 521.103 176.612 518.65 172.267C518.398 171.821 518.146 171.375 517.886 170.915C517.665 170.523 517.445 170.131 517.218 169.727C516.746 168.905 516.252 168.095 515.743 167.294C514.989 165.967 514.949 165.167 515.078 163.667C516.415 163.003 517.484 163.105 518.979 163.089C519.564 163.078 520.15 163.066 520.753 163.054C521.988 163.033 523.222 163.018 524.457 163.008C528.821 162.944 528.821 162.944 532.379 160.718C535.271 157.684 535.571 154.496 535.502 150.462C535.226 147.748 534.197 146.307 532.256 144.376C529.021 142.329 526.088 141.819 522.339 141.79C521.705 141.777 521.705 141.777 521.059 141.763C519.725 141.737 518.39 141.72 517.056 141.704C516.145 141.687 515.234 141.67 514.323 141.653C512.104 141.611 509.884 141.578 507.664 141.55C507.665 141.876 507.666 142.202 507.666 142.538C507.688 150.458 507.705 158.379 507.715 166.299C507.72 170.13 507.727 173.96 507.738 177.79C507.748 181.128 507.755 184.465 507.757 187.803C507.758 189.571 507.761 191.339 507.768 193.107C507.776 195.078 507.776 197.05 507.776 199.021C507.78 199.61 507.783 200.2 507.787 200.807C507.785 201.342 507.784 201.877 507.783 202.428C507.784 202.894 507.784 203.361 507.785 203.842C507.664 204.953 507.664 204.953 506.675 205.936C505.737 206.061 505.737 206.061 504.582 206.063C504.15 206.066 503.718 206.069 503.272 206.072C502.571 206.069 502.571 206.069 501.856 206.066C501.376 206.067 500.897 206.068 500.404 206.069C499.39 206.07 498.376 206.068 497.362 206.064C495.806 206.059 494.251 206.064 492.695 206.07C491.712 206.07 490.728 206.068 489.745 206.066C489.277 206.068 488.81 206.07 488.328 206.072C487.68 206.068 487.68 206.068 487.018 206.063C486.447 206.062 486.447 206.062 485.863 206.061C484.925 205.936 484.925 205.936 483.937 204.953C483.811 203.553 483.811 203.553 483.808 201.725C483.806 201.39 483.804 201.054 483.802 200.709C483.797 199.58 483.799 198.451 483.801 197.322C483.799 196.515 483.796 195.708 483.793 194.901C483.787 192.704 483.786 190.508 483.788 188.311C483.788 186.48 483.786 184.649 483.783 182.818C483.778 178.5 483.778 174.182 483.781 169.865C483.784 165.404 483.777 160.943 483.767 156.482C483.758 152.657 483.755 148.833 483.757 145.008C483.758 142.721 483.756 140.435 483.75 138.148C483.743 135.999 483.744 133.849 483.751 131.7C483.752 130.909 483.751 130.119 483.747 129.328C483.741 128.252 483.745 127.177 483.752 126.101C483.752 125.498 483.751 124.895 483.751 124.273C483.812 123.811 483.874 123.349 483.937 122.873C485.839 121.612 487.402 121.749 489.607 121.755C490.035 121.753 490.463 121.75 490.904 121.748C492.323 121.741 493.742 121.741 495.161 121.743C496.151 121.741 497.141 121.739 498.13 121.736C500.21 121.732 502.29 121.733 504.37 121.735C507.019 121.738 509.667 121.73 512.316 121.718C514.364 121.711 516.412 121.711 518.46 121.712C519.435 121.712 520.41 121.709 521.385 121.704C528.349 121.673 535.108 121.817 541.401 125.177C541.731 125.349 542.062 125.521 542.402 125.698C549.953 129.743 555.08 136.152 557.659 144.319C559.668 152.9 558.21 161.709 553.641 169.139C552.282 171.065 550.742 172.764 549.097 174.451C548.097 175.444 548.097 175.444 547.703 176.938C548.336 178.269 549 179.508 549.742 180.777C549.962 181.161 550.182 181.545 550.408 181.941C551.147 183.226 551.895 184.506 552.646 185.785C552.919 186.25 553.192 186.715 553.474 187.195C556.107 191.675 558.76 196.139 561.544 200.529C563.07 198.708 564.38 196.804 565.622 194.785C565.802 194.5 565.982 194.214 566.167 193.92C567.162 192.421 567.162 192.421 567.476 190.699C567.802 190.375 568.128 190.051 568.465 189.716C568.628 189.23 568.791 188.743 568.959 188.242C569.285 188.242 569.611 188.242 569.947 188.242C569.997 187.896 570.046 187.551 570.096 187.195C570.499 185.552 571.161 184.344 572.012 182.88C572.336 182.317 572.661 181.755 572.995 181.176C573.349 180.572 573.703 179.968 574.056 179.364C574.42 178.739 574.783 178.113 575.146 177.487C577.631 173.213 580.165 168.969 582.734 164.744C584.603 161.67 586.454 158.585 588.299 155.496C588.554 155.069 588.554 155.069 588.815 154.633C591.094 150.812 593.317 146.968 595.462 143.072C596.923 140.427 598.466 137.839 600.041 135.26C601.133 133.466 602.183 131.658 603.19 129.816C603.423 129.391 603.655 128.965 603.895 128.527C604.33 127.709 604.751 126.883 605.158 126.051C607.071 122.265 609.398 120.322 613.942 120.907Z" fill="#104437"/>
<path d="M222.415 121.7C222.868 121.697 223.321 121.694 223.787 121.692C225.289 121.685 226.791 121.69 228.292 121.695C229.339 121.694 230.385 121.692 231.432 121.69C233.63 121.688 235.828 121.691 238.026 121.698C240.829 121.707 243.632 121.702 246.434 121.693C248.599 121.688 250.763 121.689 252.928 121.693C253.96 121.694 254.992 121.693 256.025 121.689C266.018 121.663 274.366 122.731 281.993 129.775C287.346 135.087 288.886 141.873 288.899 149.169C288.805 154.457 287.118 158.488 284.725 163.176C285.164 163.622 285.602 164.068 286.054 164.527C289.943 169.053 291.433 175.446 291.308 181.3C290.565 188.591 288.007 194.986 282.254 199.761C276.857 204.065 271.548 206.092 264.709 206.063C263.944 206.066 263.944 206.066 263.163 206.068C261.486 206.072 259.808 206.07 258.131 206.066C256.963 206.067 255.796 206.068 254.628 206.069C252.186 206.071 249.745 206.069 247.303 206.064C244.167 206.058 241.031 206.062 237.896 206.067C235.488 206.071 233.079 206.07 230.671 206.067C229.514 206.067 228.358 206.067 227.201 206.07C225.589 206.072 223.978 206.068 222.366 206.063C221.644 206.066 221.644 206.066 220.908 206.069C220.471 206.066 220.034 206.063 219.583 206.061C219.202 206.06 218.821 206.06 218.429 206.059C217.498 205.936 217.498 205.936 216.51 204.953C216.384 203.562 216.384 203.562 216.381 201.747C216.379 201.414 216.377 201.081 216.375 200.738C216.37 199.617 216.372 198.496 216.374 197.375C216.372 196.573 216.369 195.772 216.366 194.97C216.36 192.789 216.36 190.608 216.361 188.427C216.361 186.608 216.359 184.789 216.356 182.97C216.351 178.681 216.351 174.391 216.354 170.102C216.357 165.671 216.351 161.241 216.34 156.811C216.331 153.012 216.328 149.213 216.33 145.413C216.331 143.142 216.33 140.871 216.323 138.6C216.317 136.465 216.318 134.33 216.324 132.195C216.325 131.41 216.324 130.625 216.32 129.84C216.315 128.771 216.319 127.702 216.325 126.633C216.325 126.034 216.325 125.435 216.325 124.818C216.51 123.365 216.51 123.365 217.142 122.435C218.708 121.433 220.61 121.687 222.415 121.7ZM240.237 141.55C240.237 145.767 240.237 149.984 240.237 154.329C243.271 154.374 246.305 154.413 249.339 154.437C250.371 154.447 251.402 154.46 252.433 154.477C253.919 154.501 255.405 154.512 256.891 154.521C257.578 154.536 257.578 154.536 258.279 154.552C261.261 154.553 263.01 154.104 265.447 152.363C266.703 150.408 266.656 148.228 266.436 145.974C265.906 143.997 265.227 143.101 263.47 142.042C262.083 141.582 261.254 141.49 259.822 141.494C259.169 141.494 259.169 141.494 258.503 141.494C257.801 141.498 257.801 141.498 257.084 141.502C256.604 141.503 256.123 141.504 255.628 141.504C254.092 141.507 252.555 141.513 251.019 141.519C249.978 141.522 248.937 141.524 247.896 141.526C245.343 141.531 242.79 141.541 240.237 141.55ZM240.237 173.989C240.237 178.044 240.237 182.098 240.237 186.276C243.712 186.31 247.186 186.339 250.661 186.357C251.843 186.364 253.025 186.374 254.207 186.387C255.906 186.405 257.605 186.414 259.305 186.42C259.833 186.428 260.361 186.435 260.904 186.443C264.422 186.487 264.422 186.487 267.424 184.802C268.531 183.093 268.917 181.349 268.876 179.334C268.1 176.967 267.037 175.37 264.953 173.989C263.804 173.846 263.804 173.846 262.516 173.877C261.773 173.877 261.773 173.877 261.016 173.877C260.217 173.885 260.217 173.885 259.401 173.893C258.855 173.894 258.308 173.895 257.745 173.897C255.998 173.902 254.25 173.915 252.502 173.927C251.318 173.932 250.134 173.937 248.95 173.941C246.046 173.951 243.141 173.97 240.237 173.989Z" fill="#104437"/>
<path d="M921.785 121.755C922.123 121.753 922.462 121.75 922.811 121.748C923.934 121.741 925.057 121.741 926.18 121.743C926.967 121.741 927.754 121.739 928.54 121.736C930.195 121.732 931.85 121.733 933.505 121.735C935.601 121.738 937.698 121.73 939.794 121.718C941.424 121.711 943.053 121.711 944.683 121.712C945.454 121.712 946.225 121.709 946.996 121.704C959.592 121.633 971.15 124.637 980.553 133.487C988.75 141.868 992.671 151.039 992.757 162.625C992.766 163.413 992.779 164.2 992.798 164.988C993.048 175.427 989.766 184.312 982.698 192.174C982.308 192.619 981.918 193.065 981.516 193.524C975.026 200.489 964.628 205.573 955.05 206.028C952.701 206.078 950.353 206.073 948.003 206.066C947.137 206.067 946.271 206.068 945.405 206.069C943.6 206.071 941.796 206.069 939.991 206.064C937.675 206.058 935.359 206.062 933.043 206.067C931.259 206.071 929.476 206.07 927.692 206.067C926.837 206.067 925.983 206.067 925.128 206.07C923.939 206.072 922.75 206.068 921.561 206.063C921.031 206.066 921.031 206.066 920.489 206.069C918.056 206.048 918.056 206.048 916.954 204.953C916.828 203.553 916.828 203.553 916.825 201.725C916.823 201.39 916.822 201.054 916.82 200.709C916.814 199.58 916.816 198.451 916.818 197.322C916.816 196.515 916.814 195.708 916.811 194.901C916.804 192.704 916.804 190.508 916.805 188.311C916.806 186.48 916.803 184.649 916.801 182.818C916.795 178.5 916.795 174.182 916.798 169.865C916.801 165.404 916.795 160.943 916.784 156.482C916.776 152.657 916.773 148.833 916.774 145.008C916.775 142.721 916.774 140.435 916.767 138.148C916.761 135.999 916.762 133.849 916.768 131.7C916.77 130.909 916.768 130.119 916.764 129.328C916.759 128.252 916.763 127.177 916.769 126.101C916.769 125.498 916.769 124.895 916.769 124.273C916.83 123.811 916.891 123.349 916.954 122.873C918.761 121.676 919.631 121.763 921.785 121.755ZM940.681 141.55C940.681 156.31 940.681 171.069 940.681 186.276C944.292 188.071 950.741 186.856 954.522 185.785C961.369 183.116 966.845 178.895 969.969 172.167C971.991 166.953 972.219 161.299 970.006 156.111C966.515 149.229 962.181 145.415 955.016 142.533C949.719 141.195 949.719 141.195 940.681 141.55Z" fill="#104437"/>
<path d="M400.134 121.7C400.775 121.696 400.775 121.696 401.43 121.692C402.849 121.685 404.268 121.69 405.687 121.694C406.677 121.693 407.667 121.692 408.657 121.69C410.737 121.688 412.816 121.691 414.896 121.698C417.545 121.706 420.193 121.702 422.842 121.693C424.89 121.687 426.938 121.689 428.986 121.693C429.961 121.694 430.936 121.693 431.912 121.689C438.872 121.67 445.637 121.822 451.927 125.177C452.421 125.432 452.421 125.432 452.924 125.691C456.742 127.724 460.114 130.177 462.678 133.686C462.678 134.011 462.678 134.335 462.678 134.669C463.005 134.669 463.331 134.669 463.667 134.669C463.728 135.064 463.789 135.46 463.852 135.867C463.954 136.283 464.056 136.698 464.161 137.127C464.488 137.289 464.814 137.451 465.15 137.618C469.381 145.436 469.573 154.816 467.127 163.176C465.482 167.388 463.365 170.739 460.166 173.946C459.235 174.954 458.692 175.655 458.23 176.938C458.537 177.931 458.537 177.931 459.197 178.871C459.421 179.23 459.645 179.59 459.876 179.96C460.118 180.331 460.359 180.702 460.609 181.085C463.3 185.292 463.3 185.292 463.667 187.75C463.993 187.913 464.32 188.075 464.656 188.242C465.126 189.014 465.564 189.807 465.984 190.607C467.082 192.657 468.207 194.683 469.383 196.689C469.669 197.179 469.955 197.668 470.25 198.172C471.167 199.687 472.147 201.148 473.183 202.585C473.695 203.82 473.353 204.659 473.059 205.936C469.683 206.098 466.307 206.21 462.928 206.287C461.78 206.319 460.632 206.362 459.484 206.418C450.217 206.854 450.217 206.854 447.951 205.345C446.377 203.673 445.64 201.671 444.883 199.546C444.508 198.887 444.117 198.236 443.698 197.603C442.81 196.131 441.925 194.658 441.041 193.184C440.382 192.087 439.718 190.994 439.054 189.901C438.597 189.143 438.141 188.385 437.685 187.628C437.466 187.27 437.248 186.913 437.023 186.544C435.491 183.986 435.491 183.986 435.491 182.344C435.165 182.182 434.839 182.02 434.503 181.853C434.061 181.143 433.656 180.411 433.267 179.672C433.009 179.191 432.752 178.71 432.487 178.214C432.34 177.939 432.193 177.665 432.042 177.381C431.027 175.503 429.983 173.641 428.941 171.777C428.726 171.389 428.51 171.001 428.288 170.601C428.083 170.234 427.878 169.867 427.667 169.488C427.392 168.996 427.392 168.996 427.112 168.493C426.643 167.684 426.126 166.902 425.605 166.125C425.543 164.804 425.543 164.804 425.605 163.667C427.131 163.161 428.198 163.114 429.797 163.107C430.332 163.097 430.867 163.088 431.418 163.078C432.538 163.061 433.658 163.052 434.778 163.051C438.274 162.973 440.715 162.545 443.4 160.227C445.452 157.918 446.135 155.385 446.366 152.363C446.155 149.417 444.811 146.736 442.906 144.499C440.656 142.759 438.29 142.004 435.474 141.941C434.896 141.926 434.896 141.926 434.305 141.911C433.894 141.903 433.482 141.894 433.058 141.886C432.421 141.871 432.421 141.871 431.77 141.855C430.415 141.823 429.06 141.794 427.706 141.765C426.786 141.744 425.866 141.722 424.946 141.701C422.694 141.648 420.442 141.598 418.19 141.55C418.191 141.876 418.192 142.202 418.193 142.537C418.215 150.458 418.231 158.379 418.241 166.299C418.246 170.129 418.253 173.96 418.265 177.79C418.275 181.128 418.281 184.465 418.283 187.803C418.284 189.571 418.287 191.339 418.295 193.107C418.303 195.078 418.303 197.05 418.302 199.021C418.306 199.61 418.309 200.2 418.313 200.807C418.312 201.342 418.31 201.876 418.309 202.427C418.31 202.894 418.311 203.361 418.312 203.842C418.19 204.953 418.19 204.953 417.201 205.936C416.264 206.061 416.264 206.061 415.108 206.063C414.676 206.066 414.244 206.069 413.799 206.072C413.097 206.069 413.097 206.069 412.382 206.066C411.903 206.067 411.424 206.068 410.93 206.069C409.916 206.07 408.903 206.068 407.889 206.064C406.333 206.059 404.777 206.064 403.222 206.07C402.238 206.069 401.255 206.068 400.271 206.066C399.804 206.068 399.336 206.07 398.854 206.072C398.206 206.068 398.206 206.068 397.545 206.063C396.973 206.062 396.973 206.062 396.39 206.061C395.452 205.936 395.452 205.936 394.463 204.953C394.337 203.562 394.337 203.562 394.334 201.747C394.332 201.414 394.33 201.081 394.328 200.738C394.323 199.617 394.325 198.496 394.327 197.375C394.325 196.573 394.322 195.772 394.32 194.97C394.313 192.789 394.313 190.608 394.314 188.427C394.314 186.608 394.312 184.789 394.31 182.97C394.304 178.681 394.304 174.391 394.307 170.101C394.31 165.671 394.304 161.241 394.293 156.811C394.285 153.012 394.282 149.213 394.283 145.413C394.284 143.142 394.283 140.871 394.276 138.6C394.27 136.465 394.271 134.33 394.277 132.195C394.278 131.41 394.277 130.625 394.273 129.84C394.268 128.771 394.272 127.702 394.278 126.633C394.278 126.034 394.278 125.435 394.278 124.818C394.463 123.365 394.463 123.365 395.101 122.435C396.61 121.462 398.391 121.687 400.134 121.7Z" fill="#104437"/>
<path d="M755.548 121.755C755.976 121.753 756.403 121.75 756.844 121.748C758.263 121.741 759.682 121.741 761.101 121.743C762.091 121.741 763.081 121.739 764.071 121.736C766.151 121.732 768.231 121.733 770.31 121.735C772.959 121.738 775.607 121.73 778.256 121.718C780.304 121.711 782.352 121.711 784.4 121.712C785.375 121.712 786.35 121.709 787.326 121.704C798.202 121.656 807.07 123.412 815.405 130.891C822.227 138.37 824.499 146.289 824.093 156.186C823.574 164.431 818.782 170.813 813.149 176.446C818.275 185.462 818.275 185.462 823.561 194.386C823.892 194.932 824.222 195.478 824.563 196.041C825.221 197.113 825.887 198.18 826.56 199.243C826.885 199.769 827.211 200.295 827.546 200.836C827.833 201.289 828.12 201.741 828.415 202.207C829.072 203.72 828.856 204.373 828.473 205.936C825.13 205.998 821.788 206.041 818.444 206.071C817.307 206.083 816.17 206.1 815.033 206.121C813.398 206.151 811.764 206.165 810.129 206.176C809.366 206.195 809.366 206.195 808.588 206.214C805.052 206.216 805.052 206.216 803.469 204.769C803.238 204.343 803.007 203.917 802.769 203.478C802.513 203.07 802.256 202.662 801.993 202.242C801.739 201.798 801.485 201.355 801.224 200.898C800.922 200.375 800.62 199.851 800.309 199.312C800.066 198.89 800.066 198.89 799.818 198.459C799.114 197.245 798.396 196.039 797.678 194.832C795.018 190.359 792.405 185.858 789.806 181.35C788.242 178.646 786.661 175.956 785.029 173.292C784.729 172.798 784.428 172.304 784.118 171.795C783.547 170.86 782.971 169.929 782.389 169.001C782.136 168.586 781.882 168.17 781.621 167.741C781.284 167.199 781.284 167.199 780.941 166.646C780.443 165.434 780.571 164.876 781.019 163.667C781.478 163.653 781.478 163.653 781.947 163.638C783.357 163.59 784.768 163.537 786.178 163.483C786.66 163.468 787.141 163.453 787.637 163.437C792.255 163.253 796.041 163.019 799.475 159.728C801.499 157.328 802.075 154.618 801.952 151.528C801.524 148.713 800.411 146.606 798.443 144.561C795.108 142.392 792.175 141.821 788.279 141.79C787.646 141.777 787.646 141.777 786.999 141.763C785.665 141.737 784.331 141.72 782.996 141.704C782.085 141.687 781.175 141.67 780.264 141.653C778.044 141.611 775.824 141.578 773.604 141.55C773.605 141.873 773.606 142.196 773.607 142.529C773.629 150.379 773.645 158.23 773.655 166.082C773.66 169.878 773.667 173.675 773.679 177.471C773.689 180.78 773.695 184.089 773.697 187.397C773.698 189.15 773.701 190.902 773.709 192.654C773.717 194.609 773.717 196.564 773.716 198.519C773.72 199.102 773.723 199.685 773.727 200.285C773.726 200.817 773.724 201.348 773.723 201.896C773.724 202.358 773.725 202.821 773.726 203.297C773.604 204.461 773.604 204.461 772.616 205.936C771.678 206.12 771.678 206.12 770.522 206.119C770.09 206.122 769.658 206.125 769.213 206.128C768.745 206.123 768.278 206.119 767.796 206.114C767.317 206.115 766.838 206.115 766.344 206.115C765.33 206.114 764.317 206.109 763.303 206.101C761.747 206.089 760.192 206.091 758.636 206.094C757.652 206.091 756.669 206.088 755.685 206.084C755.218 206.084 754.75 206.084 754.268 206.085C753.836 206.08 753.404 206.076 752.959 206.071C752.387 206.067 752.387 206.067 751.804 206.064C750.866 205.936 750.866 205.936 749.877 204.953C749.751 203.553 749.751 203.553 749.748 201.725C749.746 201.39 749.744 201.054 749.742 200.709C749.737 199.58 749.739 198.451 749.741 197.322C749.739 196.515 749.737 195.708 749.734 194.901C749.727 192.704 749.727 190.508 749.728 188.311C749.728 186.48 749.726 184.649 749.724 182.818C749.718 178.5 749.718 174.182 749.721 169.864C749.724 165.404 749.718 160.943 749.707 156.482C749.699 152.657 749.696 148.833 749.697 145.008C749.698 142.721 749.697 140.435 749.69 138.148C749.684 135.999 749.685 133.849 749.691 131.7C749.692 130.909 749.691 130.119 749.687 129.328C749.682 128.252 749.686 127.177 749.692 126.101C749.692 125.498 749.692 124.895 749.692 124.273C749.753 123.811 749.814 123.349 749.877 122.873C751.78 121.612 753.342 121.749 755.548 121.755Z" fill="#104437"/>
<path d="M843.344 121.706C843.851 121.703 844.359 121.7 844.881 121.696C845.435 121.7 845.989 121.704 846.559 121.707C847.144 121.706 847.73 121.704 848.333 121.702C849.936 121.699 851.54 121.702 853.143 121.708C854.822 121.714 856.501 121.712 858.179 121.711C860.998 121.711 863.817 121.716 866.636 121.725C869.895 121.736 873.153 121.737 876.411 121.734C879.547 121.731 882.682 121.734 885.818 121.74C887.152 121.742 888.486 121.742 889.819 121.741C891.682 121.741 893.545 121.747 895.408 121.755C895.961 121.754 896.515 121.753 897.085 121.752C897.593 121.755 898.1 121.759 898.623 121.762C899.063 121.763 899.503 121.764 899.957 121.765C901.216 121.899 902.028 122.242 903.114 122.873C903.15 125.375 903.177 127.877 903.195 130.379C903.203 131.23 903.213 132.082 903.226 132.933C903.244 134.156 903.252 135.378 903.259 136.601C903.266 136.983 903.274 137.365 903.282 137.758C903.282 138.831 903.282 138.831 903.114 140.567C901.325 141.753 900.034 141.683 897.969 141.662C897.597 141.662 897.226 141.662 896.843 141.662C895.615 141.661 894.388 141.654 893.16 141.646C892.309 141.644 891.457 141.643 890.606 141.642C888.366 141.638 886.125 141.628 883.885 141.618C881.599 141.608 879.312 141.603 877.026 141.598C872.54 141.588 868.054 141.57 863.569 141.55C863.569 145.767 863.569 149.984 863.569 154.329C865.127 154.318 866.686 154.306 868.292 154.294C869.797 154.287 871.302 154.281 872.807 154.275C873.855 154.27 874.903 154.263 875.951 154.255C877.456 154.243 878.96 154.237 880.464 154.233C880.935 154.228 881.405 154.223 881.89 154.218C882.326 154.217 882.761 154.217 883.21 154.217C883.594 154.215 883.978 154.213 884.374 154.211C885.318 154.329 885.318 154.329 886.307 155.312C886.412 156.598 886.457 157.832 886.456 159.119C886.458 159.496 886.46 159.873 886.462 160.261C886.465 161.059 886.465 161.857 886.463 162.655C886.462 163.876 886.473 165.097 886.486 166.318C886.487 167.092 886.487 167.867 886.487 168.642C886.491 169.007 886.496 169.373 886.5 169.75C886.478 172.285 886.478 172.285 885.687 173.349C884.609 174.148 884.04 174.168 882.705 174.156C882.279 174.156 881.854 174.156 881.415 174.156C880.958 174.148 880.501 174.141 880.03 174.133C879.56 174.131 879.09 174.128 878.606 174.126C877.105 174.118 875.605 174.1 874.104 174.081C873.086 174.073 872.069 174.067 871.052 174.061C868.557 174.046 866.063 174.017 863.569 173.989C863.569 178.043 863.569 182.098 863.569 186.276C864.699 186.273 865.829 186.271 866.994 186.268C870.725 186.26 874.456 186.255 878.187 186.251C880.449 186.248 882.711 186.244 884.974 186.239C887.157 186.234 889.339 186.231 891.522 186.229C892.355 186.228 893.189 186.227 894.022 186.224C895.188 186.22 896.354 186.22 897.52 186.22C898.039 186.218 898.039 186.218 898.568 186.215C900.06 186.218 901.191 186.294 902.62 186.768C903.385 188.29 903.205 189.903 903.214 191.575C903.217 191.953 903.22 192.331 903.223 192.721C903.227 193.521 903.231 194.32 903.233 195.12C903.237 196.347 903.253 197.573 903.268 198.799C903.272 199.576 903.274 200.352 903.276 201.128C903.282 201.496 903.288 201.865 903.295 202.244C903.29 203.278 903.29 203.278 903.114 204.953C901.491 206.029 901.018 206.06 899.136 206.064C898.62 206.067 898.104 206.071 897.573 206.074C897.008 206.073 896.442 206.072 895.859 206.071C895.264 206.073 894.668 206.076 894.054 206.078C892.42 206.084 890.786 206.085 889.152 206.084C887.788 206.083 886.425 206.086 885.061 206.088C881.845 206.094 878.629 206.094 875.412 206.091C872.093 206.088 868.773 206.094 865.453 206.104C862.604 206.113 859.755 206.116 856.905 206.114C855.203 206.114 853.501 206.115 851.799 206.122C849.902 206.129 848.005 206.124 846.107 206.119C845.542 206.122 844.976 206.126 844.394 206.13C843.878 206.127 843.362 206.123 842.831 206.12C842.382 206.12 841.934 206.12 841.471 206.12C840.336 205.936 840.336 205.936 839.45 205.39C838.555 203.999 838.665 202.857 838.661 201.215C838.659 200.884 838.656 200.552 838.653 200.211C838.646 199.098 838.65 197.986 838.653 196.873C838.65 196.076 838.647 195.279 838.643 194.482C838.634 192.316 838.635 190.151 838.637 187.985C838.639 186.178 838.636 184.371 838.633 182.565C838.626 178.304 838.627 174.044 838.632 169.783C838.638 165.383 838.631 160.984 838.618 156.584C838.607 152.81 838.604 149.035 838.607 145.261C838.608 143.006 838.607 140.75 838.598 138.494C838.591 136.374 838.593 134.254 838.602 132.133C838.604 131.354 838.602 130.575 838.597 129.796C838.591 128.734 838.596 127.673 838.605 126.611C838.605 126.016 838.605 125.421 838.605 124.809C838.853 123.365 838.853 123.365 839.7 122.436C841.016 121.8 841.883 121.706 843.344 121.706Z" fill="#104437"/>
<path d="M730.101 128.28C731.832 129.676 733.451 131.155 735.044 132.703C735.382 133.025 735.719 133.347 736.066 133.679C739.863 137.367 739.863 137.367 740.235 139.584C739.901 141.578 739.148 141.86 737.516 143.025C736.432 143.717 735.349 144.389 734.243 145.044C733.782 145.318 733.782 145.318 733.311 145.598C732.664 145.981 732.016 146.362 731.368 146.743C730.38 147.325 729.399 147.915 728.417 148.506C727.785 148.878 727.152 149.25 726.519 149.621C726.229 149.798 725.938 149.975 725.639 150.156C723.761 151.241 722.381 151.675 720.215 151.38C719.206 150.462 718.429 149.635 717.589 148.585C714.145 144.58 710.45 142.388 705.109 141.934C699.24 141.735 694.441 143.371 690.11 147.323C685.368 152.286 683.44 158.37 683.452 165.073C683.635 171.589 686.718 177.515 691.437 181.972C696.368 185.856 701.792 186.302 707.857 185.785C711.706 184.964 715.629 182.607 717.954 179.409C718.15 179.1 718.345 178.791 718.547 178.474C719.721 176.938 719.721 176.938 721.344 176.505C723.465 176.437 724.285 176.801 726.066 177.907C726.592 178.228 727.118 178.549 727.661 178.88C728.201 179.222 728.741 179.564 729.298 179.917C729.835 180.246 730.371 180.576 730.924 180.915C731.977 181.564 733.026 182.222 734.069 182.888C735.008 183.482 735.958 184.061 736.92 184.617C739.89 186.388 739.89 186.388 740.376 188.275C739.666 190.911 737.834 192.637 736.033 194.631C735.767 194.937 735.5 195.242 735.226 195.557C728.101 203.211 716.791 207.967 706.374 208.393C705.931 208.413 705.488 208.432 705.032 208.453C692.277 208.736 680.565 204.015 671.403 195.307C662.644 186.187 658.631 174.534 658.816 162.076C659.213 149.975 664.659 139.581 673.255 131.229C689.042 116.743 712.78 116.228 730.101 128.28Z" fill="#104437"/>
<path d="M342.065 120.907C345.263 122.531 346.768 125.754 348.425 128.758C349.581 130.813 350.804 132.829 352.013 134.854C352.568 135.789 353.124 136.725 353.679 137.66C354.852 139.633 356.034 141.601 357.22 143.566C357.659 144.295 357.659 144.295 358.106 145.038C358.665 145.968 359.227 146.897 359.792 147.825C361.075 149.963 362.113 151.926 362.826 154.329C363.06 154.562 363.295 154.795 363.537 155.035C364.513 156.006 364.867 157.095 365.391 158.346C365.948 159.594 366.656 160.707 367.398 161.855C369.463 165.112 371.399 168.44 373.33 171.777C373.652 172.332 373.973 172.888 374.304 173.46C375.792 176.033 377.275 178.608 378.75 181.188C381.681 186.314 384.673 191.395 387.743 196.44C388.17 197.148 388.598 197.855 389.025 198.563C389.223 198.889 389.422 199.214 389.626 199.549C390.77 201.465 391.318 202.701 391.002 204.953C389.776 206.172 389.373 206.073 387.679 206.118C387.194 206.132 386.709 206.146 386.209 206.161C385.683 206.169 385.157 206.178 384.614 206.187C383.804 206.201 383.804 206.201 382.978 206.215C381.832 206.231 380.687 206.243 379.542 206.253C378.37 206.267 377.198 206.29 376.027 206.323C374.337 206.371 372.649 206.39 370.959 206.402C370.437 206.422 369.915 206.442 369.377 206.462C365.815 206.442 365.815 206.442 364.334 204.994C363.567 203.863 362.942 202.733 362.332 201.512C361.895 200.798 361.454 200.086 361.005 199.379C360.55 198.627 360.096 197.874 359.644 197.12C359.392 196.702 359.141 196.283 358.882 195.853C355.853 190.799 352.91 185.696 349.964 180.594C348.947 178.838 347.924 177.086 346.9 175.335C346.39 174.461 345.88 173.588 345.37 172.715C344.887 171.888 344.402 171.061 343.917 170.235C343.624 169.732 343.33 169.229 343.028 168.711C342.77 168.27 342.512 167.829 342.246 167.374C341.591 166.163 341.068 164.953 340.582 163.667C339.081 165.052 338.067 166.4 337.075 168.177C336.801 168.665 336.526 169.153 336.243 169.656C335.962 170.164 335.681 170.671 335.391 171.193C334.83 172.195 334.269 173.196 333.708 174.198C333.444 174.671 333.181 175.144 332.91 175.631C332.291 176.737 331.661 177.835 331.024 178.93C330.182 180.337 330.182 180.337 329.645 181.76C329.213 182.836 329.213 182.836 328.224 183.819C327.874 184.629 327.542 185.448 327.235 186.276C326.909 186.276 326.583 186.276 326.247 186.276C326.212 186.6 326.177 186.925 326.14 187.259C325.607 189.287 324.588 190.885 323.497 192.665C323.276 193.032 323.055 193.399 322.827 193.777C322.158 194.883 321.484 195.986 320.809 197.089C320.43 197.716 320.051 198.343 319.672 198.97C318.75 200.485 317.83 201.997 316.855 203.478C316.625 203.906 316.395 204.333 316.159 204.774C314.117 206.625 311.979 206.259 309.312 206.21C308.769 206.209 308.226 206.208 307.666 206.207C306.518 206.202 305.37 206.191 304.223 206.175C302.461 206.151 300.7 206.145 298.938 206.142C297.823 206.135 296.709 206.127 295.595 206.118C295.066 206.115 294.537 206.113 293.991 206.11C293.259 206.098 293.259 206.098 292.511 206.086C292.08 206.081 291.649 206.076 291.205 206.07C290.162 205.936 290.162 205.936 289.173 204.953C288.54 201.804 290.495 199.601 292.139 197.089C294.475 193.398 296.682 189.724 298.565 185.785C299.348 184.179 300.22 182.637 301.116 181.09C301.578 180.292 301.578 180.292 302.05 179.478C302.382 178.907 302.713 178.337 303.045 177.767C303.213 177.477 303.382 177.187 303.555 176.888C305.734 173.138 307.935 169.403 310.187 165.697C315.523 156.911 320.716 148.051 325.752 139.093C327.045 136.794 328.34 134.496 329.647 132.205C330.041 131.511 330.432 130.815 330.821 130.118C331.463 128.969 332.113 127.825 332.765 126.682C333.056 126.155 333.056 126.155 333.353 125.616C335.277 122.282 337.946 119.903 342.065 120.907Z" fill="#104437"/>
</svg>
